<?xml version="1.0" encoding="UTF-8" standalone="no"?>
<svg
   height="16px"
   viewBox="0 0 16 16"
   width="16px"
   version="1.1"
   id="svg1"
   sodipodi:docname="io.github.kelvinnovais.Kasasa-symbolic.svg"
   inkscape:version="1.4 (e7c3feb100, 2024-10-09)"
   xmlns:inkscape="http://www.inkscape.org/namespaces/inkscape"
   xmlns:sodipodi="http://sodipodi.sourceforge.net/DTD/sodipodi-0.dtd"
   xmlns="http://www.w3.org/2000/svg"
   xmlns:svg="http://www.w3.org/2000/svg">
  <defs
     id="defs1" />
  <sodipodi:namedview
     id="namedview1"
     pagecolor="#ffffff"
     bordercolor="#000000"
     borderopacity="0.25"
     inkscape:showpageshadow="2"
     inkscape:pageopacity="0.0"
     inkscape:pagecheckerboard="0"
     inkscape:deskcolor="#d1d1d1"
     inkscape:zoom="256"
     inkscape:cx="5.2363281"
     inkscape:cy="0.29492188"
     inkscape:window-width="1920"
     inkscape:window-height="1000"
     inkscape:window-x="0"
     inkscape:window-y="0"
     inkscape:window-maximized="1"
     inkscape:current-layer="svg1" />
  <path
     d="m 0.5007044,3.933607 c -0.003906,0.085937 0,0.171875 0.015625,0.257812 0.054687,0.261719 0.207031,0.492188 0.425781,0.636719 l 3.558594,2.398437 V 4.812513 L 2.0592984,3.171888 c -0.21875,-0.148437 -0.488282,-0.203125 -0.75,-0.152344 -0.261719,0.050781 -0.492188,0.203125 -0.640625,0.421875 -0.097657,0.144532 -0.152344,0.316406 -0.167969,0.492188 z m 1,9.066406 c 0,1.648438 1.351562,3 3,3 1.648438,0 3,-1.351562 3,-3 V 9.246107 l 2.355469,1.585937 0.9687496,0.652344 0.09766,0.0625 c 0.0039,0.0039 0.0078,0.0078 0.01172,0.0078 C 11.391334,11.835938 11.92649,12 12.500709,12 c 1.648438,0 3,-1.351562 3,-3 0,-1.648438 -1.351562,-3 -3,-3 C 11.11399,6 9.9343034,6.960938 9.5983654,8.25 L 7.5007094,6.832031 V 1 c 0,-0.550781 -0.449219,-1 -1,-1 -0.550781,0 -1,0.449219 -1,1 v 9.171875 C 5.1882094,10.0625 4.8522714,10 4.5007094,10 c -1.648438,0 -3,1.351562 -3,3 z m 1.5,0 c 0,-0.05078 0.00391,-0.101562 0.00781,-0.152344 0.00391,-0.04297 0.011719,-0.08203 0.019532,-0.121094 0.00781,-0.04687 0.015625,-0.09375 0.03125,-0.136718 0.136718,-0.503906 0.527344,-0.894532 1.03125,-1.03125 0.042968,-0.01563 0.089844,-0.02344 0.136718,-0.03125 0.039063,-0.0078 0.078126,-0.01563 0.121094,-0.01953 h 0.00391 c 0.046876,-0.0039 0.097657,-0.0078 0.148438,-0.0078 0.132812,0 0.257812,0.01563 0.382812,0.05078 h 0.011719 c 0.125,0.03516 0.246094,0.08594 0.355469,0.148438 0.089844,0.05469 0.171875,0.113281 0.25,0.179687 v 0.01172 c 0.316406,0.285156 0.496094,0.6875 0.5,1.109375 0,0.136719 -0.019531,0.265625 -0.050781,0.390625 -0.136719,0.519531 -0.539063,0.921875 -1.0625,1.058594 -0.121094,0.03125 -0.25,0.05078 -0.386719,0.05078 -0.136719,0 -0.265625,-0.01953 -0.386719,-0.05078 -0.523437,-0.136719 -0.925781,-0.539063 -1.0625,-1.058594 -0.03125,-0.125 -0.050781,-0.253906 -0.050781,-0.390625 z m 7.9999996,-4 c 0,-0.050781 0.0039,-0.101562 0.0078,-0.152344 0.0039,-0.042968 0.01172,-0.082031 0.01953,-0.121094 0.0078,-0.046874 0.01563,-0.09375 0.03125,-0.136718 0.136718,-0.503906 0.527344,-0.894532 1.03125,-1.03125 0.04297,-0.015625 0.08984,-0.023438 0.136718,-0.03125 0.03906,-0.00781 0.07813,-0.015625 0.121094,-0.019532 h 0.0039 c 0.04688,-0.00391 0.09766,-0.00781 0.148438,-0.00781 0.136719,0 0.265625,0.019531 0.386719,0.050781 0.523437,0.136719 0.925781,0.539063 1.0625,1.058594 0.03125,0.125 0.05078,0.253906 0.05078,0.390625 0,0.136719 -0.01953,0.265625 -0.05078,0.390625 -0.136719,0.519531 -0.539063,0.921875 -1.0625,1.058594 -0.121094,0.03125 -0.25,0.05078 -0.386719,0.05078 -0.01953,0 -0.03906,0 -0.05469,-0.0039 -0.0039,0 -0.0039,-0.0039 -0.0039,-0.0039 -0.71875,-0.03516 -1.308594,-0.570313 -1.414062,-1.28125 l -0.01563,-0.011719 c -0.0078,-0.0625 -0.01172,-0.128907 -0.01172,-0.199219 z m 0,0"
     fill="#222222"
     id="path1" />
</svg>
